<svg id="visual" viewBox="0 0 900 600" width="900" height="600" xmlns="http://www.w3.org/2000/svg" xmlns:xlink="http://www.w3.org/1999/xlink" version="1.1"><rect x="0" y="0" width="900" height="600" fill="#252526"></rect><path d="M0 435L129 366L257 403L386 363L514 394L643 350L771 371L900 350L900 601L771 601L643 601L514 601L386 601L257 601L129 601L0 601Z" fill="#ffffff"></path><path d="M0 440L129 456L257 448L386 464L514 404L643 458L771 421L900 400L900 601L771 601L643 601L514 601L386 601L257 601L129 601L0 601Z" fill="#ffcfbe"></path><path d="M0 507L129 502L257 483L386 463L514 502L643 471L771 464L900 509L900 601L771 601L643 601L514 601L386 601L257 601L129 601L0 601Z" fill="#ff9e81"></path><path d="M0 517L129 524L257 493L386 502L514 507L643 514L771 493L900 511L900 601L771 601L643 601L514 601L386 601L257 601L129 601L0 601Z" fill="#ff6945"></path><path d="M0 558L129 537L257 574L386 532L514 571L643 571L771 527L900 559L900 601L771 601L643 601L514 601L386 601L257 601L129 601L0 601Z" fill="#ff0000"></path></svg>