<svg id="visual" viewBox="0 0 900 600" width="900" height="600" xmlns="http://www.w3.org/2000/svg" xmlns:xlink="http://www.w3.org/1999/xlink" version="1.1"><rect x="0" y="0" width="900" height="600" fill="#252526"></rect><path d="M0 333L129 315L257 287L386 350L514 285L643 356L771 256L900 334L900 601L771 601L643 601L514 601L386 601L257 601L129 601L0 601Z" fill="#ff0000"></path><path d="M0 411L129 401L257 329L386 338L514 352L643 320L771 413L900 284L900 601L771 601L643 601L514 601L386 601L257 601L129 601L0 601Z" fill="#ff5431"></path><path d="M0 361L129 364L257 394L386 423L514 443L643 340L771 432L900 405L900 601L771 601L643 601L514 601L386 601L257 601L129 601L0 601Z" fill="#ff7c59"></path><path d="M0 403L129 450L257 410L386 379L514 461L643 422L771 380L900 396L900 601L771 601L643 601L514 601L386 601L257 601L129 601L0 601Z" fill="#ff9e81"></path><path d="M0 448L129 458L257 428L386 501L514 493L643 504L771 501L900 486L900 601L771 601L643 601L514 601L386 601L257 601L129 601L0 601Z" fill="#ffbeaa"></path><path d="M0 501L129 544L257 500L386 519L514 524L643 470L771 514L900 521L900 601L771 601L643 601L514 601L386 601L257 601L129 601L0 601Z" fill="#ffdfd4"></path><path d="M0 516L129 529L257 524L386 526L514 575L643 522L771 547L900 553L900 601L771 601L643 601L514 601L386 601L257 601L129 601L0 601Z" fill="#ffffff"></path></svg>